<!DOCTYPE svg PUBLIC "-//W3C//DTD SVG 1.1//EN" "http://www.w3.org/Graphics/SVG/1.1/DTD/svg11.dtd">
<!-- Uploaded to: SVG Repo, www.svgrepo.com, Transformed by: SVG Repo Mixer Tools -->
<svg fill="#000000" width="197px" height="197px" viewBox="-5.76 -5.76 43.52 43.52" version="1.1" xmlns="http://www.w3.org/2000/svg" stroke="#000000" stroke-width="0.00032">
<g id="SVGRepo_bgCarrier" stroke-width="0"/>
<g id="SVGRepo_tracerCarrier" stroke-linecap="round" stroke-linejoin="round" stroke="#fcfcfc" stroke-width="4.672"> <title>fedora</title> <path d="M31.357 22.558l0 0c-0.72-4.070-3.050-4.512-6.636-5.076 0.467-2.521 1.113-5.586 0.267-7.286-1.083-2.176-3.328-1.991-4.745-1.217l2.739 1.501c-3.33-0.623-4.999-4.328-7.234-4.886-3.117-0.778-4.67 3.479-6.386 6.445-4.64-2.086-7.945-3.048-8.627 0.371-1.535 7.696 12.085 12.044 19.444 13.12l0.654-1.551 3.515 2.272c4.305 0.346 7.485-1.010 7.010-3.692z"/> </g>
<g id="SVGRepo_iconCarrier"> <title>fedora</title> <path d="M31.357 22.558l0 0c-0.72-4.070-3.050-4.512-6.636-5.076 0.467-2.521 1.113-5.586 0.267-7.286-1.083-2.176-3.328-1.991-4.745-1.217l2.739 1.501c-3.33-0.623-4.999-4.328-7.234-4.886-3.117-0.778-4.67 3.479-6.386 6.445-4.64-2.086-7.945-3.048-8.627 0.371-1.535 7.696 12.085 12.044 19.444 13.12l0.654-1.551 3.515 2.272c4.305 0.346 7.485-1.010 7.010-3.692z"/> </g>
</svg>